<svg xmlns="http://www.w3.org/2000/svg" width="32" height="32">
    <path style="stroke:none;fill-rule:nonzero;fill:#fff;fill-opacity:1" d="M16 2.668A9.324 9.324 0 0 0 6.668 12C6.668 19 16 29.332 16 29.332S25.332 19 25.332 12A9.324 9.324 0 0 0 16 2.668ZM9.332 12A6.672 6.672 0 0 1 16 5.332 6.672 6.672 0 0 1 22.668 12c0 3.84-3.84 9.586-6.668 13.172C13.227 21.613 9.332 15.8 9.332 12Zm0 0"/>
    <path style="stroke:none;fill-rule:nonzero;fill:#fff;fill-opacity:1" d="M19.332 12a3.333 3.333 0 1 1-6.665-.001 3.333 3.333 0 0 1 6.665.001Zm0 0"/>
</svg>
