<svg xmlns="http://www.w3.org/2000/svg" width="32" height="32">
    <path style="stroke:none;fill-rule:nonzero;fill:#fff;fill-opacity:1" d="M20 16h2.668A6.667 6.667 0 0 0 16 9.332V12c2.21 0 4 1.79 4 4m5.332 0H28c0-6.668-5.375-12-12-12v2.668c5.148 0 9.332 4.172 9.332 9.332m1.336 4.668c-1.668 0-3.27-.27-4.762-.762a1.347 1.347 0 0 0-1.36.332l-2.933 2.934a20.1 20.1 0 0 1-8.785-8.785l2.934-2.934c.37-.375.476-.894.332-1.36a15.18 15.18 0 0 1-.762-4.761C11.332 4.598 10.738 4 10 4H5.332C4.598 4 4 4.598 4 5.332 4 17.852 14.148 28 26.668 28c.734 0 1.332-.598 1.332-1.332V22c0-.738-.598-1.332-1.332-1.332Zm0 0"/>
</svg>
