<svg xmlns="http://www.w3.org/2000/svg" width="32" height="32">
    <path style="stroke:none;fill-rule:nonzero;fill:#fff;fill-opacity:1" d="m13.332 20 6.922-4-6.922-4v8M28.746 9.559c.176.629.293 1.468.375 2.535.094 1.066.133 1.984.133 2.785L29.332 16c0 2.922-.21 5.066-.586 6.441-.332 1.2-1.105 1.973-2.305 2.305-.628.176-1.773.293-3.535.375-1.734.094-3.32.133-4.785.133L16 25.332c-5.586 0-9.066-.21-10.441-.586-1.2-.332-1.973-1.105-2.305-2.305-.176-.628-.293-1.468-.375-2.535a31.845 31.845 0 0 1-.133-2.785L2.668 16c0-2.922.21-5.066.586-6.441.332-1.2 1.105-1.973 2.305-2.305.628-.176 1.773-.293 3.535-.375a88.432 88.432 0 0 1 4.785-.133L16 6.668c5.586 0 9.066.21 10.441.586 1.2.332 1.973 1.105 2.305 2.305Zm0 0"/>
</svg>
